<svg width="390" height="115" viewBox="0 0 390 115" fill="none" xmlns="http://www.w3.org/2000/svg">
<g filter="url(#filter0_i_517_4450)">
<path d="M174.186 12.5H176.936V30H174.186V12.5ZM178.996 12.5H182.446L185.121 22.975H185.171V12.5H187.621V30H184.796L181.496 17.225H181.446V30H178.996V12.5ZM191.815 15H188.94V12.5H197.44V15H194.565V30H191.815V15ZM198.771 12.5H202.846C204.263 12.5 205.296 12.8333 205.946 13.5C206.596 14.15 206.921 15.1583 206.921 16.525V17.6C206.921 19.4167 206.321 20.5667 205.121 21.05V21.1C205.788 21.3 206.254 21.7083 206.521 22.325C206.804 22.9417 206.946 23.7667 206.946 24.8V27.875C206.946 28.375 206.963 28.7833 206.996 29.1C207.029 29.4 207.113 29.7 207.246 30H204.446C204.346 29.7167 204.279 29.45 204.246 29.2C204.213 28.95 204.196 28.5 204.196 27.85V24.65C204.196 23.85 204.063 23.2917 203.796 22.975C203.546 22.6583 203.104 22.5 202.471 22.5H201.521V30H198.771V12.5ZM202.521 20C203.071 20 203.479 19.8583 203.746 19.575C204.029 19.2917 204.171 18.8167 204.171 18.15V16.8C204.171 16.1667 204.054 15.7083 203.821 15.425C203.604 15.1417 203.254 15 202.771 15H201.521V20H202.521ZM212.829 30.25C211.479 30.25 210.446 29.8667 209.729 29.1C209.012 28.3333 208.654 27.25 208.654 25.85V16.65C208.654 15.25 209.012 14.1667 209.729 13.4C210.446 12.6333 211.479 12.25 212.829 12.25C214.179 12.25 215.212 12.6333 215.929 13.4C216.646 14.1667 217.004 15.25 217.004 16.65V25.85C217.004 27.25 216.646 28.3333 215.929 29.1C215.212 29.8667 214.179 30.25 212.829 30.25ZM212.829 27.75C213.779 27.75 214.254 27.175 214.254 26.025V16.475C214.254 15.325 213.779 14.75 212.829 14.75C211.879 14.75 211.404 15.325 211.404 16.475V26.025C211.404 27.175 211.879 27.75 212.829 27.75Z" fill="#B6001E"/>
<path d="M173.161 32H217.829V34H173.161V32Z" fill="#B6001E"/>
</g>
<path d="M62.0004 61.2V59.2H65.0804V63.64C65.0804 65.88 63.9604 67.16 61.8004 67.16C59.6404 67.16 58.5204 65.88 58.5204 63.64V56.36C58.5204 54.12 59.6404 52.84 61.8004 52.84C63.9604 52.84 65.0804 54.12 65.0804 56.36V57.72H63.0004V56.22C63.0004 55.22 62.5604 54.84 61.8604 54.84C61.1604 54.84 60.7204 55.22 60.7204 56.22V63.78C60.7204 64.78 61.1604 65.14 61.8604 65.14C62.5604 65.14 63.0004 64.78 63.0004 63.78V61.2H62.0004ZM66.4934 67V53H68.6934V67H66.4934ZM72.502 55V59.22H75.342V61.22H72.502V67H70.302V53H76.122V55H72.502ZM76.537 55V53H83.337V55H81.037V67H78.837V55H76.537ZM90.4513 53L92.0513 62.94H92.0913L93.5713 53H96.6313V67H94.5513V56.96H94.5113L93.0313 67H90.9513L89.3513 57.1H89.3113V67H87.3913V53H90.4513ZM100.252 56.22V63.78C100.252 64.78 100.692 65.16 101.392 65.16C102.092 65.16 102.532 64.78 102.532 63.78V56.22C102.532 55.22 102.092 54.84 101.392 54.84C100.692 54.84 100.252 55.22 100.252 56.22ZM98.0516 63.64V56.36C98.0516 54.12 99.2316 52.84 101.392 52.84C103.552 52.84 104.732 54.12 104.732 56.36V63.64C104.732 65.88 103.552 67.16 101.392 67.16C99.2316 67.16 98.0516 65.88 98.0516 63.64ZM109.201 53L110.801 62.94H110.841L112.321 53H115.381V67H113.301V56.96H113.261L111.781 67H109.701L108.101 57.1H108.061V67H106.141V53H109.201ZM119.182 55V58.9H122.202V60.9H119.182V65H122.982V67H116.982V53H122.982V55H119.182ZM129.045 67L126.345 56.86H126.305V67H124.325V53H127.085L129.305 61.38H129.345V53H131.305V67H129.045ZM132.24 55V53H139.04V55H136.74V67H134.54V55H132.24ZM155.029 51.082V68.7383H152.939V51.082H155.029ZM151.396 51.3945V67.8789H149.326V59.4805H147.646C147.441 62.918 145.967 65.0469 143.779 65.0273C141.475 65.0469 139.971 62.6055 139.971 58.7188C139.971 54.832 141.475 52.4297 143.779 52.4297C145.918 52.4297 147.373 54.4219 147.627 57.7227H149.326V51.3945H151.396ZM143.779 54.4805C142.666 54.4609 141.963 55.9648 141.982 58.7188C141.963 61.4727 142.666 62.9766 143.779 62.957C144.951 62.9766 145.654 61.4727 145.654 58.7188C145.654 55.9648 144.951 54.4609 143.779 54.4805ZM169.854 52.0781C173.643 52.0781 176.436 53.9727 176.436 56.8438C176.436 59.4902 174.16 61.2578 170.928 61.5703V64.8125H177.959V66.5898H161.826V64.8125H168.779V61.5703C165.566 61.2578 163.291 59.4902 163.311 56.8438C163.291 53.9727 166.084 52.0781 169.854 52.0781ZM169.854 53.8359C167.275 53.8164 165.42 54.9883 165.439 56.8438C165.42 58.7578 167.275 59.8906 169.854 59.8906C172.471 59.8906 174.307 58.7578 174.307 56.8438C174.307 54.9883 172.471 53.8164 169.854 53.8359ZM193.818 51.1016V63.9922H191.631V51.1016H193.818ZM194.307 66.6289V68.3867H182.139V62.7617H184.326V66.6289H194.307ZM185.693 53.7969C185.693 56.2578 187.139 58.582 189.932 59.5195L188.818 61.2383C186.807 60.5352 185.371 59.1289 184.6 57.332C183.799 59.2559 182.344 60.7988 180.264 61.5508L179.131 59.832C182.002 58.8164 183.447 56.3359 183.447 53.7969V52.0781H185.693V53.7969ZM215.928 51.1016V62.8789H213.76V57.6445H210.4V55.8672H213.76V51.1016H215.928ZM210.283 52.4688C210.264 57.1367 207.568 60.3398 202.314 61.9805L201.377 60.2812C205.439 59.0605 207.568 56.9414 207.939 54.207H202.295V52.4688H210.283ZM211.123 62.1758C211.104 64.3633 213.291 66.3555 216.807 66.9219L215.928 68.6406C213.193 68.1719 211.084 66.8828 210.029 65.0469C208.945 66.8828 206.826 68.1816 204.092 68.6602L203.232 66.9414C206.768 66.4141 208.955 64.3633 208.955 62.1758V61.4922H211.123V62.1758ZM226.455 51.3555C230.479 51.3555 232.803 52.4297 232.822 54.3828C232.803 56.3555 230.479 57.4102 226.455 57.4297C222.432 57.4102 220.088 56.3555 220.088 54.3828C220.088 52.4297 222.432 51.3555 226.455 51.3555ZM226.455 52.957C223.76 52.957 222.354 53.4648 222.373 54.3828C222.354 55.3594 223.76 55.8086 226.455 55.8086C229.189 55.8086 230.576 55.3594 230.576 54.3828C230.576 53.4648 229.189 52.957 226.455 52.957ZM234.521 58.3672V60.1055H218.428V58.3672H234.521ZM232.51 61.2969V65.6133H222.471V66.9219H232.998V68.582H220.342V64.0703H230.381V62.8984H220.322V61.2969H232.51ZM254.443 51.082V57H256.826V58.7969H254.443V64.8711H252.275V51.082H254.443ZM255.068 66.6289V68.3867H242.842V63.9531H245.01V66.6289H255.068ZM240.303 61.3359C241.621 61.3359 243.154 61.3262 244.756 61.2578V60.1445C242.793 59.9102 241.553 58.9434 241.553 57.5273C241.553 55.7891 243.252 54.7734 245.811 54.793C248.389 54.7734 250.068 55.7891 250.068 57.5273C250.068 58.9336 248.857 59.8906 246.924 60.1445V61.1602C248.428 61.082 249.941 60.9453 251.357 60.7305L251.533 62.2539C247.803 62.957 243.584 62.9961 240.537 63.0352L240.303 61.3359ZM250.889 52.625V54.207H240.752V52.625H244.756V51.0234H246.924V52.625H250.889ZM245.811 56.2578C244.443 56.2578 243.623 56.707 243.643 57.5273C243.623 58.2891 244.443 58.7383 245.811 58.7383C247.178 58.7383 247.998 58.2891 247.998 57.5273C247.998 56.707 247.178 56.2578 245.811 56.2578ZM262.646 52.0781C264.072 52.0781 265.303 52.6055 266.143 53.4844H270.361V51.082H272.529V61.4727H270.361V59.2266H266.143C265.303 60.1055 264.062 60.623 262.646 60.6133C259.99 60.6328 257.979 58.8359 257.979 56.3555C257.979 53.8555 259.99 52.0781 262.646 52.0781ZM262.646 53.9336C261.123 53.9336 260.049 54.8711 260.049 56.3555C260.049 57.8008 261.123 58.7773 262.646 58.7773C264.111 58.7773 265.186 57.8008 265.205 56.3555C265.186 54.8711 264.111 53.9336 262.646 53.9336ZM266.553 61.8438C270.264 61.8438 272.588 63.1133 272.588 65.2812C272.588 67.4492 270.264 68.7188 266.553 68.7188C262.861 68.7188 260.537 67.4492 260.557 65.2812C260.537 63.1133 262.861 61.8438 266.553 61.8438ZM266.553 63.5039C264.092 63.5039 262.666 64.1289 262.686 65.2812C262.666 66.3945 264.092 67.0195 266.553 67.0195C269.053 67.0195 270.459 66.3945 270.459 65.2812C270.459 64.1289 269.053 63.5039 266.553 63.5039ZM267.119 55.2227C267.217 55.584 267.275 55.9551 267.275 56.3555C267.275 56.7461 267.217 57.1172 267.139 57.4688H270.361V55.2227H267.119ZM288.955 51.082V55.4375H291.416V57.2344H288.955V61.3945H286.787V51.082H288.955ZM279.697 62.0977V63.6211H286.787V62.0977H288.955V68.5234H277.549V62.0977H279.697ZM279.697 66.8047H286.787V65.3008H279.697V66.8047ZM285.518 52.7227V54.4609H275.049V52.7227H279.209V50.9453H281.377V52.7227H285.518ZM280.283 55.0664C282.842 55.0664 284.58 56.2969 284.6 58.1719C284.58 60.0469 282.842 61.2773 280.283 61.2773C277.705 61.2773 275.947 60.0469 275.947 58.1719C275.947 56.2969 277.705 55.0664 280.283 55.0664ZM280.283 56.668C278.936 56.668 278.057 57.2344 278.057 58.1719C278.057 59.1289 278.936 59.6758 280.283 59.6758C281.631 59.6758 282.529 59.1289 282.529 58.1719C282.529 57.2344 281.631 56.668 280.283 56.668ZM307.041 51.082V68.7383H304.893V51.082H307.041ZM295.479 52.8008V62.4492C297.959 62.4102 300.596 62.1855 303.311 61.6484L303.584 63.4648C300.479 64.1094 297.588 64.3047 294.854 64.3047H293.33V52.8008H295.479ZM323.428 51.082V57.7812H326.143V59.5586H323.428V68.7578H321.26V51.082H323.428ZM318.584 52.7617V54.5195H312.49V62.625C315.234 62.625 317.402 62.4883 319.834 62.0586L320.088 63.8945C317.354 64.3633 314.971 64.4414 311.787 64.4414H310.322V52.7617H318.584ZM330.518 52.8594L330.303 62.8398H328.096L327.861 52.8594H330.518ZM329.209 67.1562C328.369 67.1562 327.686 66.4727 327.686 65.6328C327.686 64.8125 328.369 64.1289 329.209 64.1289C330.01 64.1289 330.713 64.8125 330.713 65.6328C330.713 66.4727 330.01 67.1562 329.209 67.1562ZM68.7988 84.207C68.7988 86.5508 70.2051 88.8359 72.9395 89.7734L71.748 91.4727C69.8438 90.75 68.4766 89.373 67.7441 87.6445C66.9727 89.5781 65.5371 91.1113 63.4668 91.8828L62.3145 90.1641C65.1465 89.207 66.5918 86.7656 66.6113 84.1875V82.1758H68.7988V84.207ZM77.1582 81.1016V94.207H74.9902V86.7656H71.4746V84.9883H74.9902V81.1016H77.1582ZM77.5488 96.6289V98.3867H65.5176V92.7812H67.7246V96.6289H77.5488ZM95.752 88.25V89.9688H88.7598V91.2969H93.7402V95.6328H83.7012V96.9219H94.2285V98.582H81.5723V94.0703H91.6113V92.9375H81.5527V91.2969H86.5918V89.9688H79.6582V88.25H95.752ZM93.6816 81.6289V87.1367H81.6895V81.6289H93.6816ZM83.8184 83.3281V85.4375H91.5137V83.3281H83.8184ZM116.475 81.1016V93.9922H114.307V87.5273H111.182V85.7695H114.307V81.1016H116.475ZM116.924 96.6289V98.3867H104.893V92.8594H107.061V96.6289H116.924ZM108.174 84.6172C108.174 86.7461 109.6 88.9336 112.334 89.832L111.24 91.5703C109.268 90.8965 107.871 89.5586 107.1 87.8789C106.318 89.7441 104.844 91.2188 102.764 91.9414L101.65 90.1836C104.463 89.2656 105.967 86.9414 105.967 84.5977V84.1289H102.295V82.3711H111.826V84.1289H108.174V84.6172ZM127.568 82.0391V83.7773H121.807V87.7031C125.02 87.6836 126.943 87.5566 129.131 87.1172L129.365 88.7969C127.002 89.3438 124.834 89.4023 121.084 89.4023H119.658V82.0391H127.568ZM132.9 81.082V84.5586H135.361V86.3359H132.9V89.9102H130.732V81.082H132.9ZM132.9 90.6719V95.3594H123.525V96.7656H133.447V98.5234H121.377V93.7188H130.732V92.4102H121.357V90.6719H132.9ZM144.287 81.3555C148.311 81.3555 150.635 82.4297 150.654 84.3828C150.635 86.3555 148.311 87.4102 144.287 87.4297C140.264 87.4102 137.92 86.3555 137.92 84.3828C137.92 82.4297 140.264 81.3555 144.287 81.3555ZM144.287 82.957C141.592 82.957 140.186 83.4648 140.205 84.3828C140.186 85.3594 141.592 85.8086 144.287 85.8086C147.021 85.8086 148.408 85.3594 148.408 84.3828C148.408 83.4648 147.021 82.957 144.287 82.957ZM152.354 88.3672V90.1055H136.26V88.3672H152.354ZM150.342 91.2969V95.6133H140.303V96.9219H150.83V98.582H138.174V94.0703H148.213V92.8984H138.154V91.2969H150.342ZM164.053 81.8633C166.729 81.8438 168.682 83.3672 168.682 85.5742C168.682 87.7422 166.729 89.2852 164.053 89.2656C161.396 89.2852 159.463 87.7422 159.463 85.5742C159.463 83.3672 161.396 81.8438 164.053 81.8633ZM164.053 83.6211C162.607 83.6016 161.553 84.3633 161.572 85.5742C161.553 86.7656 162.607 87.4883 164.053 87.4883C165.557 87.4883 166.611 86.7656 166.611 85.5742C166.611 84.3633 165.557 83.6016 164.053 83.6211ZM173.057 81.1016V98.7188H170.908V81.1016H173.057ZM158.311 90.4766C161.494 90.4766 165.947 90.418 169.756 89.8516L169.912 91.4531C168.389 91.7461 166.807 91.9316 165.264 92.0391V98.1914H163.076V92.1758C161.445 92.2441 159.912 92.2539 158.584 92.2734L158.311 90.4766ZM184.189 83.8945V85.6328H175.537V83.8945H178.818V81.5898H180.967V83.8945H184.189ZM179.893 86.5703C182.139 86.5703 183.74 88.2695 183.74 90.6719C183.74 93.1133 182.139 94.832 179.893 94.832C177.666 94.832 176.025 93.1133 176.045 90.6719C176.025 88.2695 177.666 86.5703 179.893 86.5703ZM179.893 88.3672C178.74 88.3672 177.939 89.2852 177.959 90.6719C177.939 92.0977 178.74 92.9961 179.893 92.9766C181.025 92.9961 181.826 92.0977 181.826 90.6719C181.826 89.2852 181.025 88.3672 179.893 88.3672ZM190.752 81.082V98.7383H188.682V90.1055H186.963V97.9375H184.932V81.4531H186.963V88.3477H188.682V81.082H190.752ZM213.74 94.8906V96.6875H197.607V94.8906H204.561V92.0195H199.521V86.2383H209.678V84.0508H199.482V82.293H211.826V87.957H201.689V90.2422H212.236V92.0195H206.709V94.8906H213.74ZM228.936 82.8008V84.793C228.936 87.1562 228.936 89.5977 228.291 93.3086L226.084 93.1133C226.768 89.6367 226.768 87.0781 226.768 84.793V84.5586H216.592V82.8008H228.936ZM230.986 94.5391V96.3164H214.893V94.5391H230.986ZM246.885 81.1016V93.8555H244.697V81.1016H246.885ZM247.373 96.6289V98.3867H235.205V92.5664H237.393V96.6289H247.373ZM237.256 82.2539C239.932 82.2539 242.002 84.1094 242.002 86.668C242.002 89.2852 239.932 91.1016 237.256 91.1016C234.561 91.1016 232.49 89.2852 232.49 86.668C232.49 84.1094 234.561 82.2539 237.256 82.2539ZM237.256 84.1484C235.752 84.1484 234.6 85.1445 234.619 86.668C234.6 88.2305 235.752 89.207 237.256 89.207C238.721 89.207 239.873 88.2305 239.873 86.668C239.873 85.1445 238.721 84.1484 237.256 84.1484ZM262.822 83.8945V85.6328H254.17V83.8945H257.451V81.5898H259.6V83.8945H262.822ZM258.525 86.5703C260.771 86.5703 262.373 88.2695 262.373 90.6719C262.373 93.1133 260.771 94.832 258.525 94.832C256.299 94.832 254.658 93.1133 254.678 90.6719C254.658 88.2695 256.299 86.5703 258.525 86.5703ZM258.525 88.3672C257.373 88.3672 256.572 89.2852 256.592 90.6719C256.572 92.0977 257.373 92.9961 258.525 92.9766C259.658 92.9961 260.459 92.0977 260.459 90.6719C260.459 89.2852 259.658 88.3672 258.525 88.3672ZM269.385 81.082V98.7383H267.314V90.1055H265.596V97.9375H263.564V81.4531H265.596V88.3477H267.314V81.082H269.385ZM287.588 90.9258V92.6836H280.576V98.7188H278.428V92.6836H271.494V90.9258H287.588ZM286.104 82.0781V83.7969H280.811C280.938 85.7305 283.262 87.5859 286.748 88.0352L285.967 89.7344C282.959 89.3145 280.615 87.9375 279.541 86.0234C278.467 87.9375 276.123 89.3145 273.154 89.7344L272.334 88.0352C275.801 87.5859 278.125 85.7305 278.291 83.7969H272.979V82.0781H286.104ZM294.287 85.7109C294.287 88.5625 295.283 91.5312 297.666 93.0352L296.475 94.6953C294.883 93.7383 293.848 92.0879 293.271 90.1445C292.627 92.2832 291.494 94.0898 289.834 95.1055L288.486 93.4844C291.045 91.9219 292.197 88.8164 292.197 85.8086V82.6445H294.287V85.7109ZM304.014 81.082V98.7383H301.924V81.082H304.014ZM300.342 81.3945V97.8789H298.291V88.9531H295.771V87.1562H298.291V81.3945H300.342ZM322.197 94.8125V96.5898H306.064V94.8125H309.795V90.3398C308.389 89.5391 307.539 88.2793 307.549 86.707C307.529 83.8945 310.303 82.0391 314.092 82.0391C317.9 82.0391 320.674 83.8945 320.674 86.707C320.674 88.25 319.854 89.4902 318.486 90.3008V94.8125H322.197ZM314.092 83.7578C311.455 83.7578 309.658 84.8711 309.678 86.707C309.658 88.5234 311.455 89.6562 314.092 89.6562C316.729 89.6562 318.545 88.5234 318.545 86.707C318.545 84.8711 316.729 83.7578 314.092 83.7578ZM311.943 94.8125H316.279V91.1211C315.605 91.2773 314.873 91.3555 314.092 91.3555C313.33 91.3555 312.607 91.2773 311.943 91.1406V94.8125ZM325.498 97.1562C324.658 97.1562 323.975 96.4727 323.975 95.6328C323.975 94.8125 324.658 94.1289 325.498 94.1289C326.299 94.1289 327.002 94.8125 327.002 95.6328C327.002 96.4727 326.299 97.1562 325.498 97.1562Z" fill="black"/>
<defs>
<filter id="filter0_i_517_4450" x="173.161" y="12.25" width="44.668" height="25.75" filterUnits="userSpaceOnUse" color-interpolation-filters="sRGB">
<feFlood flood-opacity="0" result="BackgroundImageFix"/>
<feBlend mode="normal" in="SourceGraphic" in2="BackgroundImageFix" result="shape"/>
<feColorMatrix in="SourceAlpha" type="matrix" values="0 0 0 0 0 0 0 0 0 0 0 0 0 0 0 0 0 0 127 0" result="hardAlpha"/>
<feOffset dy="4"/>
<feGaussianBlur stdDeviation="2"/>
<feComposite in2="hardAlpha" operator="arithmetic" k2="-1" k3="1"/>
<feColorMatrix type="matrix" values="0 0 0 0 0 0 0 0 0 0 0 0 0 0 0 0 0 0 0.25 0"/>
<feBlend mode="normal" in2="shape" result="effect1_innerShadow_517_4450"/>
</filter>
</defs>
</svg>
