<svg width="15" height="15" viewBox="0 0 15 15" fill="none" xmlns="http://www.w3.org/2000/svg">
<rect width="15" height="15" rx="7.5" fill="#DA1E28"/>
<path d="M6.20296 9.14087C6.11587 9.14087 6.02879 9.10879 5.96004 9.04004C5.82712 8.90712 5.82712 8.68712 5.96004 8.55421L8.55421 5.96004C8.68712 5.82712 8.90712 5.82712 9.04004 5.96004C9.17296 6.09296 9.17296 6.31296 9.04004 6.44587L6.44587 9.04004C6.38171 9.10879 6.29004 9.14087 6.20296 9.14087Z" fill="white"/>
<path d="M8.79712 9.14087C8.71004 9.14087 8.62296 9.10879 8.55421 9.04004L5.96004 6.44587C5.82712 6.31296 5.82712 6.09296 5.96004 5.96004C6.09296 5.82712 6.31296 5.82712 6.44587 5.96004L9.04004 8.55421C9.17296 8.68712 9.17296 8.90712 9.04004 9.04004C8.97129 9.10879 8.88421 9.14087 8.79712 9.14087Z" fill="white"/>
</svg>
