<svg width="390" height="155" viewBox="0 0 390 155" fill="none" xmlns="http://www.w3.org/2000/svg">
<g filter="url(#filter0_i_516_2310)">
<path d="M174.186 12.5H176.936V30H174.186V12.5ZM178.996 12.5H182.446L185.121 22.975H185.171V12.5H187.621V30H184.796L181.496 17.225H181.446V30H178.996V12.5ZM191.815 15H188.94V12.5H197.44V15H194.565V30H191.815V15ZM198.771 12.5H202.846C204.263 12.5 205.296 12.8333 205.946 13.5C206.596 14.15 206.921 15.1583 206.921 16.525V17.6C206.921 19.4167 206.321 20.5667 205.121 21.05V21.1C205.788 21.3 206.254 21.7083 206.521 22.325C206.804 22.9417 206.946 23.7667 206.946 24.8V27.875C206.946 28.375 206.963 28.7833 206.996 29.1C207.029 29.4 207.113 29.7 207.246 30H204.446C204.346 29.7167 204.279 29.45 204.246 29.2C204.213 28.95 204.196 28.5 204.196 27.85V24.65C204.196 23.85 204.063 23.2917 203.796 22.975C203.546 22.6583 203.104 22.5 202.471 22.5H201.521V30H198.771V12.5ZM202.521 20C203.071 20 203.479 19.8583 203.746 19.575C204.029 19.2917 204.171 18.8167 204.171 18.15V16.8C204.171 16.1667 204.054 15.7083 203.821 15.425C203.604 15.1417 203.254 15 202.771 15H201.521V20H202.521ZM212.829 30.25C211.479 30.25 210.446 29.8667 209.729 29.1C209.012 28.3333 208.654 27.25 208.654 25.85V16.65C208.654 15.25 209.012 14.1667 209.729 13.4C210.446 12.6333 211.479 12.25 212.829 12.25C214.179 12.25 215.212 12.6333 215.929 13.4C216.646 14.1667 217.004 15.25 217.004 16.65V25.85C217.004 27.25 216.646 28.3333 215.929 29.1C215.212 29.8667 214.179 30.25 212.829 30.25ZM212.829 27.75C213.779 27.75 214.254 27.175 214.254 26.025V16.475C214.254 15.325 213.779 14.75 212.829 14.75C211.879 14.75 211.404 15.325 211.404 16.475V26.025C211.404 27.175 211.879 27.75 212.829 27.75Z" fill="#B6001E"/>
<path d="M173.161 32H217.829V34H173.161V32Z" fill="#B6001E"/>
</g>
<path d="M62.0004 58.2V56.2H65.0804V60.64C65.0804 62.88 63.9604 64.16 61.8004 64.16C59.6404 64.16 58.5204 62.88 58.5204 60.64V53.36C58.5204 51.12 59.6404 49.84 61.8004 49.84C63.9604 49.84 65.0804 51.12 65.0804 53.36V54.72H63.0004V53.22C63.0004 52.22 62.5604 51.84 61.8604 51.84C61.1604 51.84 60.7204 52.22 60.7204 53.22V60.78C60.7204 61.78 61.1604 62.14 61.8604 62.14C62.5604 62.14 63.0004 61.78 63.0004 60.78V58.2H62.0004ZM66.4934 64V50H68.6934V64H66.4934ZM72.502 52V56.22H75.342V58.22H72.502V64H70.302V50H76.122V52H72.502ZM76.537 52V50H83.337V52H81.037V64H78.837V52H76.537ZM90.4513 50L92.0513 59.94H92.0913L93.5713 50H96.6313V64H94.5513V53.96H94.5113L93.0313 64H90.9513L89.3513 54.1H89.3113V64H87.3913V50H90.4513ZM100.252 53.22V60.78C100.252 61.78 100.692 62.16 101.392 62.16C102.092 62.16 102.532 61.78 102.532 60.78V53.22C102.532 52.22 102.092 51.84 101.392 51.84C100.692 51.84 100.252 52.22 100.252 53.22ZM98.0516 60.64V53.36C98.0516 51.12 99.2316 49.84 101.392 49.84C103.552 49.84 104.732 51.12 104.732 53.36V60.64C104.732 62.88 103.552 64.16 101.392 64.16C99.2316 64.16 98.0516 62.88 98.0516 60.64ZM109.201 50L110.801 59.94H110.841L112.321 50H115.381V64H113.301V53.96H113.261L111.781 64H109.701L108.101 54.1H108.061V64H106.141V50H109.201ZM119.182 52V55.9H122.202V57.9H119.182V62H122.982V64H116.982V50H122.982V52H119.182ZM129.045 64L126.345 53.86H126.305V64H124.325V50H127.085L129.305 58.38H129.345V50H131.305V64H129.045ZM132.24 52V50H139.04V52H136.74V64H134.54V52H132.24ZM155.029 48.082V65.7383H152.939V48.082H155.029ZM151.396 48.3945V64.8789H149.326V56.4805H147.646C147.441 59.918 145.967 62.0469 143.779 62.0273C141.475 62.0469 139.971 59.6055 139.971 55.7188C139.971 51.832 141.475 49.4297 143.779 49.4297C145.918 49.4297 147.373 51.4219 147.627 54.7227H149.326V48.3945H151.396ZM143.779 51.4805C142.666 51.4609 141.963 52.9648 141.982 55.7188C141.963 58.4727 142.666 59.9766 143.779 59.957C144.951 59.9766 145.654 58.4727 145.654 55.7188C145.654 52.9648 144.951 51.4609 143.779 51.4805ZM169.854 49.0781C173.643 49.0781 176.436 50.9727 176.436 53.8438C176.436 56.4902 174.16 58.2578 170.928 58.5703V61.8125H177.959V63.5898H161.826V61.8125H168.779V58.5703C165.566 58.2578 163.291 56.4902 163.311 53.8438C163.291 50.9727 166.084 49.0781 169.854 49.0781ZM169.854 50.8359C167.275 50.8164 165.42 51.9883 165.439 53.8438C165.42 55.7578 167.275 56.8906 169.854 56.8906C172.471 56.8906 174.307 55.7578 174.307 53.8438C174.307 51.9883 172.471 50.8164 169.854 50.8359ZM193.818 48.1016V60.9922H191.631V48.1016H193.818ZM194.307 63.6289V65.3867H182.139V59.7617H184.326V63.6289H194.307ZM185.693 50.7969C185.693 53.2578 187.139 55.582 189.932 56.5195L188.818 58.2383C186.807 57.5352 185.371 56.1289 184.6 54.332C183.799 56.2559 182.344 57.7988 180.264 58.5508L179.131 56.832C182.002 55.8164 183.447 53.3359 183.447 50.7969V49.0781H185.693V50.7969ZM215.928 48.1016V59.8789H213.76V54.6445H210.4V52.8672H213.76V48.1016H215.928ZM210.283 49.4688C210.264 54.1367 207.568 57.3398 202.314 58.9805L201.377 57.2812C205.439 56.0605 207.568 53.9414 207.939 51.207H202.295V49.4688H210.283ZM211.123 59.1758C211.104 61.3633 213.291 63.3555 216.807 63.9219L215.928 65.6406C213.193 65.1719 211.084 63.8828 210.029 62.0469C208.945 63.8828 206.826 65.1816 204.092 65.6602L203.232 63.9414C206.768 63.4141 208.955 61.3633 208.955 59.1758V58.4922H211.123V59.1758ZM226.455 48.3555C230.479 48.3555 232.803 49.4297 232.822 51.3828C232.803 53.3555 230.479 54.4102 226.455 54.4297C222.432 54.4102 220.088 53.3555 220.088 51.3828C220.088 49.4297 222.432 48.3555 226.455 48.3555ZM226.455 49.957C223.76 49.957 222.354 50.4648 222.373 51.3828C222.354 52.3594 223.76 52.8086 226.455 52.8086C229.189 52.8086 230.576 52.3594 230.576 51.3828C230.576 50.4648 229.189 49.957 226.455 49.957ZM234.521 55.3672V57.1055H218.428V55.3672H234.521ZM232.51 58.2969V62.6133H222.471V63.9219H232.998V65.582H220.342V61.0703H230.381V59.8984H220.322V58.2969H232.51ZM254.443 48.082V54H256.826V55.7969H254.443V61.8711H252.275V48.082H254.443ZM255.068 63.6289V65.3867H242.842V60.9531H245.01V63.6289H255.068ZM240.303 58.3359C241.621 58.3359 243.154 58.3262 244.756 58.2578V57.1445C242.793 56.9102 241.553 55.9434 241.553 54.5273C241.553 52.7891 243.252 51.7734 245.811 51.793C248.389 51.7734 250.068 52.7891 250.068 54.5273C250.068 55.9336 248.857 56.8906 246.924 57.1445V58.1602C248.428 58.082 249.941 57.9453 251.357 57.7305L251.533 59.2539C247.803 59.957 243.584 59.9961 240.537 60.0352L240.303 58.3359ZM250.889 49.625V51.207H240.752V49.625H244.756V48.0234H246.924V49.625H250.889ZM245.811 53.2578C244.443 53.2578 243.623 53.707 243.643 54.5273C243.623 55.2891 244.443 55.7383 245.811 55.7383C247.178 55.7383 247.998 55.2891 247.998 54.5273C247.998 53.707 247.178 53.2578 245.811 53.2578ZM262.646 49.0781C264.072 49.0781 265.303 49.6055 266.143 50.4844H270.361V48.082H272.529V58.4727H270.361V56.2266H266.143C265.303 57.1055 264.062 57.623 262.646 57.6133C259.99 57.6328 257.979 55.8359 257.979 53.3555C257.979 50.8555 259.99 49.0781 262.646 49.0781ZM262.646 50.9336C261.123 50.9336 260.049 51.8711 260.049 53.3555C260.049 54.8008 261.123 55.7773 262.646 55.7773C264.111 55.7773 265.186 54.8008 265.205 53.3555C265.186 51.8711 264.111 50.9336 262.646 50.9336ZM266.553 58.8438C270.264 58.8438 272.588 60.1133 272.588 62.2812C272.588 64.4492 270.264 65.7188 266.553 65.7188C262.861 65.7188 260.537 64.4492 260.557 62.2812C260.537 60.1133 262.861 58.8438 266.553 58.8438ZM266.553 60.5039C264.092 60.5039 262.666 61.1289 262.686 62.2812C262.666 63.3945 264.092 64.0195 266.553 64.0195C269.053 64.0195 270.459 63.3945 270.459 62.2812C270.459 61.1289 269.053 60.5039 266.553 60.5039ZM267.119 52.2227C267.217 52.584 267.275 52.9551 267.275 53.3555C267.275 53.7461 267.217 54.1172 267.139 54.4688H270.361V52.2227H267.119ZM288.955 48.082V52.4375H291.416V54.2344H288.955V58.3945H286.787V48.082H288.955ZM279.697 59.0977V60.6211H286.787V59.0977H288.955V65.5234H277.549V59.0977H279.697ZM279.697 63.8047H286.787V62.3008H279.697V63.8047ZM285.518 49.7227V51.4609H275.049V49.7227H279.209V47.9453H281.377V49.7227H285.518ZM280.283 52.0664C282.842 52.0664 284.58 53.2969 284.6 55.1719C284.58 57.0469 282.842 58.2773 280.283 58.2773C277.705 58.2773 275.947 57.0469 275.947 55.1719C275.947 53.2969 277.705 52.0664 280.283 52.0664ZM280.283 53.668C278.936 53.668 278.057 54.2344 278.057 55.1719C278.057 56.1289 278.936 56.6758 280.283 56.6758C281.631 56.6758 282.529 56.1289 282.529 55.1719C282.529 54.2344 281.631 53.668 280.283 53.668ZM307.041 48.082V65.7383H304.893V48.082H307.041ZM295.479 49.8008V59.4492C297.959 59.4102 300.596 59.1855 303.311 58.6484L303.584 60.4648C300.479 61.1094 297.588 61.3047 294.854 61.3047H293.33V49.8008H295.479ZM323.428 48.082V54.7812H326.143V56.5586H323.428V65.7578H321.26V48.082H323.428ZM318.584 49.7617V51.5195H312.49V59.625C315.234 59.625 317.402 59.4883 319.834 59.0586L320.088 60.8945C317.354 61.3633 314.971 61.4414 311.787 61.4414H310.322V49.7617H318.584ZM330.518 49.8594L330.303 59.8398H328.096L327.861 49.8594H330.518ZM329.209 64.1562C328.369 64.1562 327.686 63.4727 327.686 62.6328C327.686 61.8125 328.369 61.1289 329.209 61.1289C330.01 61.1289 330.713 61.8125 330.713 62.6328C330.713 63.4727 330.01 64.1562 329.209 64.1562ZM78.8477 101.363C78.8477 103.277 79.9609 105.191 82.2852 106.07L81.1328 107.73C79.5605 107.125 78.4668 106.002 77.832 104.625C77.1875 106.207 76.0352 107.555 74.3555 108.258L73.1836 106.598C75.6055 105.523 76.7383 103.316 76.7578 101.363V99.1758H78.8477V101.363ZM88.4375 98.1016V108.922H86.3672V104.332H84.6094V108.375H82.5781V98.4336H84.6094V102.555H86.3672V98.1016H88.4375ZM82.4805 109.215C86.1719 109.215 88.5156 110.426 88.5352 112.457C88.5156 114.488 86.1719 115.719 82.4805 115.719C78.75 115.719 76.4258 114.488 76.4258 112.457C76.4258 110.426 78.75 109.215 82.4805 109.215ZM82.4805 110.855C80.0391 110.855 78.5938 111.422 78.5938 112.457C78.5938 113.512 80.0391 114.059 82.4805 114.059C84.9023 114.059 86.3477 113.512 86.3477 112.457C86.3477 111.422 84.9023 110.855 82.4805 110.855ZM95.625 98.6484C98.3008 98.6484 100.293 100.309 100.312 102.633C100.293 104.977 98.3008 106.617 95.625 106.617C92.9297 106.617 90.9375 104.977 90.9375 102.633C90.9375 100.309 92.9297 98.6484 95.625 98.6484ZM95.625 100.445C94.1406 100.445 93.0469 101.285 93.0469 102.633C93.0469 104 94.1406 104.859 95.625 104.859C97.1094 104.859 98.2031 104 98.2031 102.633C98.2031 101.285 97.1094 100.445 95.625 100.445ZM105.332 98.082V107.008H103.145V98.082H105.332ZM105.332 107.77V112.379H95.7812V113.805H105.859V115.523H93.6523V110.777H103.164V109.469H93.6133V107.77H105.332ZM127.441 98.082V111.129H125.273V106.52H122.773V104.723H125.273V103.043H122.773V101.285H125.273V98.082H127.441ZM122.52 99.4102V101.148H120.957V106.773C121.621 106.734 122.266 106.686 122.891 106.617L122.988 108.199C119.648 108.746 115.723 108.805 112.91 108.805L112.676 107.008L114.668 106.988V101.148H113.125V99.4102H122.52ZM127.891 113.629V115.387H115.84V110.113H118.027V113.629H127.891ZM116.777 106.969L118.867 106.891V101.148H116.777V106.969ZM136.602 103.102C136.602 105.992 138.301 109.039 141.152 110.23L139.961 111.949C137.871 111.051 136.348 109.195 135.547 106.949C134.727 109.371 133.184 111.402 131.113 112.379L129.863 110.68C132.656 109.391 134.395 106.109 134.395 103.102V101.617H130.508V99.8203H140.469V101.617H136.602V103.102ZM144.629 98.082V115.738H142.441V98.082H144.629ZM163.34 106.09V107.73H147.207V106.09H163.34ZM161.387 108.785V112.809H151.27V114.039H161.914V115.543H149.102V111.402H159.238V110.309H149.082V108.785H161.387ZM161.348 98.4727V102.457H151.406V103.609H161.66V105.094H149.258V101.051H159.18V99.9766H149.199V98.4727H161.348ZM174.121 109.02V110.641H181.797V109.02H183.945V115.523H171.973V109.02H174.121ZM174.121 113.785H181.797V112.301H174.121V113.785ZM183.945 98.1016V108.258H181.777V98.1016H183.945ZM169.277 105.621C172.598 105.621 176.934 105.621 180.723 105.133L180.859 106.676C179.424 106.92 177.939 107.076 176.484 107.184V109.449H174.316V107.281C172.607 107.359 170.986 107.359 169.551 107.359L169.277 105.621ZM176.348 99.293C176.348 100.895 177.812 102.34 180.488 102.867L179.551 104.508C177.52 104.078 176.055 103.092 175.273 101.754C174.502 103.209 173.018 104.303 170.918 104.781L169.961 103.121C172.676 102.535 174.121 101.012 174.121 99.293V98.5312H176.348V99.293ZM201.777 98.082V115.738H199.707V98.082H201.777ZM198.027 98.5117V114.898H195.977V106.773H192.832C191.797 108.805 190.137 110.562 187.637 112.008L186.406 110.465C190.068 108.307 191.738 105.543 192.07 101.988H187.305V100.23H194.219C194.219 101.939 194.014 103.541 193.535 105.035H195.977V98.5117H198.027ZM213.32 99.3711C215.977 99.3711 217.891 101.793 217.91 105.602C217.891 109.449 215.977 111.852 213.32 111.852C210.645 111.852 208.711 109.449 208.73 105.602C208.711 101.793 210.645 99.3711 213.32 99.3711ZM213.32 101.324C211.836 101.324 210.82 102.906 210.82 105.602C210.82 108.316 211.836 109.898 213.32 109.898C214.824 109.898 215.82 108.316 215.82 105.602C215.82 102.906 214.824 101.324 213.32 101.324ZM222.402 98.082V104.859H225.117V106.695H222.402V115.738H220.234V98.082H222.402ZM235.039 99.8203C235.039 105.152 233.574 109.723 227.07 112.965L225.879 111.324C228.936 109.811 230.752 108.053 231.777 105.953L226.289 106.48L226.016 104.605L232.441 104.195C232.666 103.375 232.803 102.506 232.871 101.578H226.934V99.8203H235.039ZM239.688 98.082V104.996H242.305V106.773H239.688V115.699H237.52V98.082H239.688ZM257.832 98.082V115.758H255.645V98.082H257.832ZM248.32 99.3711C250.977 99.3711 252.91 101.793 252.93 105.602C252.91 109.449 250.977 111.852 248.32 111.852C245.645 111.852 243.711 109.449 243.711 105.602C243.711 101.793 245.645 99.3711 248.32 99.3711ZM248.32 101.324C246.816 101.324 245.801 102.906 245.801 105.602C245.801 108.316 246.816 109.898 248.32 109.898C249.805 109.898 250.82 108.316 250.82 105.602C250.82 102.906 249.805 101.324 248.32 101.324ZM263.477 99.1758V101.617H267.676V99.1758H269.844V107.477H261.328V99.1758H263.477ZM263.477 105.738H267.676V103.316H263.477V105.738ZM275.137 98.1016V108.707H272.949V98.1016H275.137ZM269.16 109C272.871 109 275.176 110.23 275.176 112.379C275.176 114.488 272.871 115.719 269.16 115.719C265.43 115.719 263.125 114.488 263.125 112.379C263.125 110.23 265.43 109 269.16 109ZM269.16 110.66C266.66 110.66 265.312 111.246 265.312 112.379C265.312 113.434 266.66 114.039 269.16 114.039C271.641 114.039 273.027 113.434 273.047 112.379C273.027 111.246 271.641 110.66 269.16 110.66ZM291.543 98.082V105.113H294.258V106.91H291.543V115.738H289.395V98.082H291.543ZM288.027 100.797V102.535H277.617V100.797H281.797V98.3359H283.965V100.797H288.027ZM282.891 103.688C285.43 103.688 287.324 105.406 287.324 107.848C287.324 110.289 285.43 111.988 282.891 111.988C280.312 111.988 278.418 110.289 278.438 107.848C278.418 105.406 280.312 103.688 282.891 103.688ZM282.891 105.465C281.504 105.465 280.508 106.402 280.508 107.848C280.508 109.293 281.504 110.211 282.891 110.191C284.238 110.211 285.234 109.293 285.254 107.848C285.234 106.402 284.238 105.465 282.891 105.465ZM309.414 99.7031V101.402C309.395 103.59 309.395 106.051 308.711 109.742L306.523 109.508C307.207 106.07 307.207 103.561 307.227 101.441H296.68V99.7031H309.414ZM311.094 111.676V113.453H295V111.676H300.938V105.543H303.086V111.676H311.094ZM315.723 112.613L314.082 118.082H312.227L313.242 112.613H315.723ZM31.6797 126.207C31.6797 128.551 33.0859 130.836 35.8203 131.773L34.6289 133.473C32.7246 132.75 31.3574 131.373 30.625 129.645C29.8535 131.578 28.418 133.111 26.3477 133.883L25.1953 132.164C28.0273 131.207 29.4727 128.766 29.4922 126.188V124.176H31.6797V126.207ZM40.0391 123.102V136.207H37.8711V128.766H34.3555V126.988H37.8711V123.102H40.0391ZM40.4297 138.629V140.387H28.3984V134.781H30.6055V138.629H40.4297ZM58.6328 130.25V131.969H51.6406V133.297H56.6211V137.633H46.582V138.922H57.1094V140.582H44.4531V136.07H54.4922V134.938H44.4336V133.297H49.4727V131.969H42.5391V130.25H58.6328ZM56.5625 123.629V129.137H44.5703V123.629H56.5625ZM46.6992 125.328V127.438H54.3945V125.328H46.6992ZM79.3555 123.082V136.031H77.1875V129.684H74.4141V127.945H77.1875V123.082H79.3555ZM74.4922 124.547V126.305H72.9297V131.5C73.6914 131.441 74.4434 131.373 75.1562 131.285L75.293 132.848C71.8164 133.453 67.8125 133.531 64.8242 133.531L64.5898 131.734L66.582 131.715V126.305H65.0391V124.547H74.4922ZM79.8047 138.629V140.387H67.7539V134.918H69.9414V138.629H79.8047ZM68.6914 131.695C69.3945 131.676 70.1074 131.656 70.8203 131.617V126.305H68.6914V131.695ZM96.5625 123.082V133.746H94.375V123.082H96.5625ZM91.2891 124.43V126.188H85.0391V130.68C88.5254 130.689 90.5664 130.553 92.8516 130.094L93.0469 131.871C90.5859 132.34 88.3789 132.438 84.3945 132.438H82.8906V124.43H91.2891ZM90.5859 133.863C94.2773 133.844 96.6016 135.133 96.6016 137.301C96.6016 139.469 94.2773 140.738 90.5859 140.738C86.8359 140.738 84.5508 139.469 84.5508 137.301C84.5508 135.133 86.8359 133.844 90.5859 133.863ZM90.5859 135.562C88.1055 135.562 86.7383 136.148 86.7383 137.301C86.7383 138.414 88.1055 139.02 90.5859 139.02C93.0469 139.02 94.4531 138.414 94.4727 137.301C94.4531 136.148 93.0469 135.562 90.5859 135.562ZM107.168 124.078C110.898 124.078 113.75 126.051 113.75 129.059C113.75 132.105 110.898 134.078 107.168 134.078C103.457 134.078 100.605 132.105 100.625 129.059C100.605 126.051 103.457 124.078 107.168 124.078ZM107.168 125.836C104.609 125.816 102.715 127.105 102.715 129.059C102.715 131.051 104.609 132.301 107.168 132.301C109.746 132.301 111.621 131.051 111.621 129.059C111.621 127.105 109.746 125.816 107.168 125.836ZM115.273 136.734V138.512H99.1406V136.734H115.273ZM132.559 136.891V138.688H116.426V136.891H123.379V134.02H118.34V128.238H128.496V126.051H118.301V124.293H130.645V129.957H120.508V132.242H131.055V134.02H125.527V136.891H132.559ZM153.164 123.102V136.051H150.977V123.102H153.164ZM153.652 138.629V140.387H141.484V134.879H143.672V138.629H153.652ZM145.156 127.203C145.156 129.293 146.68 131.285 149.492 132.086L148.457 133.805C146.396 133.199 144.922 131.949 144.121 130.348C143.32 132.086 141.826 133.453 139.727 134.098L138.672 132.398C141.504 131.539 142.988 129.43 142.988 127.203V126.969H139.219V125.25H142.988V123.18H145.176V125.25H148.926V126.969H145.156V127.203ZM169.863 124.156V125.738C169.863 127.389 169.863 129.195 169.395 131.695H171.836V133.453H164.824V140.758H162.637V133.453H155.742V131.695H167.188C167.676 129.293 167.695 127.496 167.695 125.914H157.637V124.156H169.863ZM189.141 130.152V131.871H173.027V130.152H189.141ZM187.227 127.301V129.02H175.078V123.531H187.07V125.27H177.246V127.301H187.227ZM187.109 133.082V137.516H177.07V138.863H187.598V140.562H174.941V135.953H184.98V134.723H174.922V133.082H187.109ZM200.176 124.918V126.168C200.176 127.75 200.176 129.957 199.688 133.004L197.539 132.828C197.959 130.152 198.008 128.18 198.027 126.656H191.094V124.918H200.176ZM195.723 129.957V135.172C197.52 135.104 199.365 134.977 201.055 134.762L201.172 136.383C197.52 136.969 193.477 137.047 190.371 137.027L190.156 135.289C191.201 135.279 192.363 135.27 193.574 135.23V129.957H195.723ZM204.16 123.082V130.27H206.719V132.105H204.16V140.738H201.973V123.082H204.16ZM226.27 123.082V127.555H228.73V129.371H226.27V133.727H224.102V123.082H226.27ZM226.27 134.566V140.523H214.863V134.566H226.27ZM217.012 136.285V138.766H224.121V136.285H217.012ZM222.832 124.781V126.52H212.363V124.781H216.523V122.965H218.691V124.781H222.832ZM217.598 127.164C220.156 127.164 221.895 128.453 221.914 130.328C221.895 132.223 220.156 133.492 217.598 133.492C215.02 133.492 213.262 132.223 213.262 130.328C213.262 128.453 215.02 127.164 217.598 127.164ZM217.598 128.805C216.25 128.805 215.371 129.371 215.371 130.328C215.371 131.305 216.25 131.871 217.598 131.871C218.945 131.871 219.844 131.305 219.844 130.328C219.844 129.371 218.945 128.805 217.598 128.805ZM233.984 125.152C233.965 129.312 233.496 133.336 231.152 136.812L229.453 135.895C231.406 133.15 231.973 130.289 232.109 126.91H229.961V125.152H233.984ZM237.93 125.152C237.92 126.666 237.891 128.238 237.734 129.801H239.512V123.512H241.562V139.898H239.512V131.559H237.5C237.109 133.746 236.396 135.875 235.098 137.789L233.438 136.852C235.557 133.814 235.967 130.416 236.055 126.91H234.512V125.152H237.93ZM244.98 123.082V140.738H242.891V123.082H244.98ZM266.406 123.082V140.738H264.219V123.082H266.406ZM261.133 124.957C261.133 130.211 259.102 134.684 252.91 137.613L251.777 135.875C256.396 133.678 258.545 130.689 258.926 126.676H252.676V124.957H261.133ZM272.168 123.883V131.09C274.492 131.07 276.465 130.953 278.672 130.582L278.887 132.301C276.387 132.77 274.141 132.887 271.348 132.867H269.98V123.883H272.168ZM283.73 123.082V133.434H281.562V129.566H276.992V127.926H281.562V126.48H276.992V124.84H281.562V123.082H283.73ZM283.73 134.156V140.523H272.09V134.156H283.73ZM274.219 135.895V138.766H281.582V135.895H274.219ZM294.844 125.895V127.633H286.191V125.895H289.473V123.59H291.621V125.895H294.844ZM290.547 128.57C292.793 128.57 294.395 130.27 294.395 132.672C294.395 135.113 292.793 136.832 290.547 136.832C288.32 136.832 286.68 135.113 286.699 132.672C286.68 130.27 288.32 128.57 290.547 128.57ZM290.547 130.367C289.395 130.367 288.594 131.285 288.613 132.672C288.594 134.098 289.395 134.996 290.547 134.977C291.68 134.996 292.48 134.098 292.48 132.672C292.48 131.285 291.68 130.367 290.547 130.367ZM301.406 123.082V140.738H299.336V132.105H297.617V139.938H295.586V123.453H297.617V130.348H299.336V123.082H301.406ZM324.395 136.832V138.609H308.262V136.832H315.215V133.395H310.039V124.254H312.207V127.145H320.391V124.254H322.559V133.395H317.363V136.832H324.395ZM312.207 131.637H320.391V128.883H312.207V131.637ZM331.055 127.711C331.055 130.562 332.051 133.531 334.434 135.035L333.242 136.695C331.65 135.738 330.615 134.088 330.039 132.145C329.395 134.283 328.262 136.09 326.602 137.105L325.254 135.484C327.812 133.922 328.965 130.816 328.965 127.809V124.645H331.055V127.711ZM340.781 123.082V140.738H338.691V123.082H340.781ZM337.109 123.395V139.879H335.059V130.953H332.539V129.156H335.059V123.395H337.109ZM358.965 136.812V138.59H342.832V136.812H346.562V132.34C345.156 131.539 344.307 130.279 344.316 128.707C344.297 125.895 347.07 124.039 350.859 124.039C354.668 124.039 357.441 125.895 357.441 128.707C357.441 130.25 356.621 131.49 355.254 132.301V136.812H358.965ZM350.859 125.758C348.223 125.758 346.426 126.871 346.445 128.707C346.426 130.523 348.223 131.656 350.859 131.656C353.496 131.656 355.312 130.523 355.312 128.707C355.312 126.871 353.496 125.758 350.859 125.758ZM348.711 136.812H353.047V133.121C352.373 133.277 351.641 133.355 350.859 133.355C350.098 133.355 349.375 133.277 348.711 133.141V136.812ZM363.75 124.859L363.535 134.84H361.328L361.094 124.859H363.75ZM362.441 139.156C361.602 139.156 360.918 138.473 360.918 137.633C360.918 136.812 361.602 136.129 362.441 136.129C363.242 136.129 363.945 136.812 363.945 137.633C363.945 138.473 363.242 139.156 362.441 139.156Z" fill="black"/>
<defs>
<filter id="filter0_i_516_2310" x="173.161" y="12.25" width="44.668" height="25.75" filterUnits="userSpaceOnUse" color-interpolation-filters="sRGB">
<feFlood flood-opacity="0" result="BackgroundImageFix"/>
<feBlend mode="normal" in="SourceGraphic" in2="BackgroundImageFix" result="shape"/>
<feColorMatrix in="SourceAlpha" type="matrix" values="0 0 0 0 0 0 0 0 0 0 0 0 0 0 0 0 0 0 127 0" result="hardAlpha"/>
<feOffset dy="4"/>
<feGaussianBlur stdDeviation="2"/>
<feComposite in2="hardAlpha" operator="arithmetic" k2="-1" k3="1"/>
<feColorMatrix type="matrix" values="0 0 0 0 0 0 0 0 0 0 0 0 0 0 0 0 0 0 0.25 0"/>
<feBlend mode="normal" in2="shape" result="effect1_innerShadow_516_2310"/>
</filter>
</defs>
</svg>
