<svg width="160" height="40" viewBox="0 0 160 40" fill="none" xmlns="http://www.w3.org/2000/svg">
<rect width="160" height="40" rx="5" fill="#FEE500"/>
<path fill-rule="evenodd" clip-rule="evenodd" d="M28.5001 10.6667C22.9769 10.6667 18.5 14.1256 18.5 18.3915C18.5 21.0446 20.2316 23.3834 22.8684 24.7745L21.7589 28.8274C21.6609 29.1855 22.0705 29.4709 22.385 29.2634L27.2482 26.0537C27.6586 26.0933 28.0757 26.1164 28.5001 26.1164C34.0228 26.1164 38.5 22.6577 38.5 18.3915C38.5 14.1256 34.0228 10.6667 28.5001 10.6667Z" fill="black"/>
<path d="M60.35 14.28H62.3C62.3 18.57 61.28 22.14 56.105 24.765L55.04 23.25C59.36 21.075 60.35 18.42 60.35 14.52V14.28ZM55.895 14.28H61.535V15.855H55.895V14.28ZM60.395 17.685V19.215L55.415 19.695L55.175 17.985L60.395 17.685ZM63.98 12.93H65.99V26.82H63.98V12.93ZM65.465 18.24H67.91V19.875H65.465V18.24ZM74.1488 14.28H76.0988C76.0988 18.57 75.0788 22.14 69.9038 24.765L68.8388 23.25C73.1588 21.075 74.1488 18.42 74.1488 14.52V14.28ZM69.6938 14.28H75.3338V15.855H69.6938V14.28ZM74.1938 17.685V19.215L69.2138 19.695L68.9738 17.985L74.1938 17.685ZM77.7788 12.93H79.7888V26.82H77.7788V12.93ZM79.2638 18.24H81.7088V19.875H79.2638V18.24ZM87.9777 20.76H89.9727V23.925H87.9777V20.76ZM88.9827 13.65C91.9527 13.65 94.1727 15.165 94.1727 17.475C94.1727 19.815 91.9527 21.315 88.9827 21.315C86.0127 21.315 83.7927 19.815 83.7927 17.475C83.7927 15.165 86.0127 13.65 88.9827 13.65ZM88.9827 15.225C87.0777 15.225 85.7577 16.065 85.7577 17.475C85.7577 18.915 87.0777 19.74 88.9827 19.74C90.8877 19.74 92.2077 18.915 92.2077 17.475C92.2077 16.065 90.8877 15.225 88.9827 15.225ZM82.7127 23.61H95.2827V25.23H82.7127V23.61ZM100.247 23.685H112.817V25.305H100.247V23.685ZM105.512 21.06H107.507V24.345H105.512V21.06ZM101.657 13.845H111.407V18.465H103.667V20.805H101.687V16.905H109.427V15.42H101.657V13.845ZM101.687 20.01H111.722V21.615H101.687V20.01ZM115.321 14.22H124.126V15.795H115.321V14.22ZM114.046 23.4H126.601V25.02H114.046V23.4ZM123.076 14.22H125.056V15.87C125.056 17.82 125.056 19.71 124.561 22.56L122.566 22.395C123.076 19.725 123.076 17.745 123.076 15.87V14.22ZM137.369 12.96H139.379V22.935H137.369V12.96ZM130.124 25.005H139.724V26.595H130.124V25.005ZM130.124 21.93H132.119V25.65H130.124V21.93ZM131.819 13.83C133.949 13.83 135.584 15.3 135.584 17.355C135.584 19.395 133.949 20.88 131.819 20.88C129.689 20.88 128.039 19.395 128.039 17.355C128.039 15.3 129.689 13.83 131.819 13.83ZM131.819 15.555C130.784 15.555 129.989 16.215 129.989 17.355C129.989 18.48 130.784 19.14 131.819 19.14C132.839 19.14 133.634 18.48 133.634 17.355C133.634 16.215 132.839 15.555 131.819 15.555Z" fill="black" fill-opacity="0.85"/>
</svg>
